<mxfile host="Electron" modified="2024-02-10T09:22:16.420Z" agent="Mozilla/5.0 (Windows NT 10.0; Win64; x64) AppleWebKit/537.36 (KHTML, like Gecko) draw.io/23.0.2 Chrome/120.0.6099.109 Electron/28.1.0 Safari/537.36" etag="rR-q1TZvM5VxJG33wl54" version="23.0.2" type="device">
  <diagram name="Страница — 1" id="TbsggRi9A-KJWEO2lp-_">
    <mxGraphModel dx="1221" dy="823" grid="1" gridSize="10" guides="1" tooltips="1" connect="1" arrows="1" fold="1" page="1" pageScale="1" pageWidth="827" pageHeight="1169" math="0" shadow="0">
      <root>
        <mxCell id="0" />
        <mxCell id="1" parent="0" />
        <mxCell id="T-vivkNuzFImTQ-fA0yE-8" value="" style="rounded=0;whiteSpace=wrap;html=1;fillColor=#d5e8d4;strokeColor=#82b366;" parent="1" vertex="1">
          <mxGeometry x="160" y="190" width="350" height="310" as="geometry" />
        </mxCell>
        <mxCell id="T-vivkNuzFImTQ-fA0yE-1" value="Регистрация в системе" style="ellipse;whiteSpace=wrap;html=1;fillColor=#ffe6cc;strokeColor=#d79b00;" parent="1" vertex="1">
          <mxGeometry x="170" y="220" width="160" height="50" as="geometry" />
        </mxCell>
        <mxCell id="T-vivkNuzFImTQ-fA0yE-3" value="Вход в систему" style="ellipse;whiteSpace=wrap;html=1;fillColor=#ffe6cc;strokeColor=#d79b00;" parent="1" vertex="1">
          <mxGeometry x="170" y="290" width="160" height="50" as="geometry" />
        </mxCell>
        <mxCell id="T-vivkNuzFImTQ-fA0yE-4" value="Восстановление пароля" style="ellipse;whiteSpace=wrap;html=1;fillColor=#ffe6cc;strokeColor=#d79b00;" parent="1" vertex="1">
          <mxGeometry x="255" y="360" width="160" height="50" as="geometry" />
        </mxCell>
        <mxCell id="T-vivkNuzFImTQ-fA0yE-5" value="Гость" style="shape=umlActor;verticalLabelPosition=bottom;verticalAlign=top;html=1;outlineConnect=0;" parent="1" vertex="1">
          <mxGeometry x="60" y="315" width="30" height="60" as="geometry" />
        </mxCell>
        <mxCell id="T-vivkNuzFImTQ-fA0yE-6" value="Выход из системы" style="ellipse;whiteSpace=wrap;html=1;fillColor=#ffe6cc;strokeColor=#d79b00;" parent="1" vertex="1">
          <mxGeometry x="340" y="245" width="160" height="50" as="geometry" />
        </mxCell>
        <mxCell id="T-vivkNuzFImTQ-fA0yE-9" value="Пользователь" style="shape=umlActor;verticalLabelPosition=bottom;verticalAlign=top;html=1;outlineConnect=0;" parent="1" vertex="1">
          <mxGeometry x="570" y="240" width="30" height="60" as="geometry" />
        </mxCell>
        <mxCell id="T-vivkNuzFImTQ-fA0yE-10" value="" style="endArrow=none;html=1;rounded=0;exitX=0.5;exitY=0.5;exitDx=0;exitDy=0;exitPerimeter=0;entryX=0;entryY=0.5;entryDx=0;entryDy=0;" parent="1" source="T-vivkNuzFImTQ-fA0yE-5" target="T-vivkNuzFImTQ-fA0yE-1" edge="1">
          <mxGeometry width="50" height="50" relative="1" as="geometry">
            <mxPoint x="330" y="470" as="sourcePoint" />
            <mxPoint x="380" y="420" as="targetPoint" />
          </mxGeometry>
        </mxCell>
        <mxCell id="T-vivkNuzFImTQ-fA0yE-11" value="" style="endArrow=none;html=1;rounded=0;exitX=0.5;exitY=0.5;exitDx=0;exitDy=0;exitPerimeter=0;entryX=0;entryY=0.5;entryDx=0;entryDy=0;" parent="1" source="T-vivkNuzFImTQ-fA0yE-5" target="T-vivkNuzFImTQ-fA0yE-3" edge="1">
          <mxGeometry width="50" height="50" relative="1" as="geometry">
            <mxPoint x="55" y="325" as="sourcePoint" />
            <mxPoint x="150" y="255" as="targetPoint" />
          </mxGeometry>
        </mxCell>
        <mxCell id="T-vivkNuzFImTQ-fA0yE-12" value="" style="endArrow=none;html=1;rounded=0;exitX=0.5;exitY=0.5;exitDx=0;exitDy=0;exitPerimeter=0;entryX=0;entryY=0.5;entryDx=0;entryDy=0;" parent="1" source="T-vivkNuzFImTQ-fA0yE-5" target="T-vivkNuzFImTQ-fA0yE-4" edge="1">
          <mxGeometry width="50" height="50" relative="1" as="geometry">
            <mxPoint x="55" y="325" as="sourcePoint" />
            <mxPoint x="150" y="325" as="targetPoint" />
          </mxGeometry>
        </mxCell>
        <mxCell id="T-vivkNuzFImTQ-fA0yE-13" value="" style="endArrow=none;html=1;rounded=0;exitX=0.5;exitY=0.5;exitDx=0;exitDy=0;exitPerimeter=0;entryX=1;entryY=0.5;entryDx=0;entryDy=0;" parent="1" source="T-vivkNuzFImTQ-fA0yE-9" target="T-vivkNuzFImTQ-fA0yE-6" edge="1">
          <mxGeometry width="50" height="50" relative="1" as="geometry">
            <mxPoint x="55" y="280" as="sourcePoint" />
            <mxPoint x="150" y="350" as="targetPoint" />
          </mxGeometry>
        </mxCell>
        <mxCell id="pRmrj5750WE65lbmFISp-3" value="Ввод нового пароля" style="ellipse;whiteSpace=wrap;html=1;fillColor=#ffe6cc;strokeColor=#d79b00;" vertex="1" parent="1">
          <mxGeometry x="170" y="430" width="160" height="50" as="geometry" />
        </mxCell>
        <mxCell id="pRmrj5750WE65lbmFISp-4" value="" style="endArrow=none;html=1;rounded=0;exitX=0.5;exitY=0.5;exitDx=0;exitDy=0;exitPerimeter=0;entryX=0;entryY=0.5;entryDx=0;entryDy=0;" edge="1" parent="1" source="T-vivkNuzFImTQ-fA0yE-5" target="pRmrj5750WE65lbmFISp-3">
          <mxGeometry width="50" height="50" relative="1" as="geometry">
            <mxPoint x="55" y="325" as="sourcePoint" />
            <mxPoint x="150" y="395" as="targetPoint" />
          </mxGeometry>
        </mxCell>
        <mxCell id="pRmrj5750WE65lbmFISp-5" value="Почтовый сервер" style="shape=umlActor;verticalLabelPosition=bottom;verticalAlign=top;html=1;outlineConnect=0;" vertex="1" parent="1">
          <mxGeometry x="570" y="355" width="30" height="60" as="geometry" />
        </mxCell>
        <mxCell id="pRmrj5750WE65lbmFISp-6" value="" style="endArrow=none;html=1;rounded=0;exitX=0.5;exitY=0.5;exitDx=0;exitDy=0;exitPerimeter=0;entryX=1;entryY=0.5;entryDx=0;entryDy=0;" edge="1" parent="1" source="pRmrj5750WE65lbmFISp-5" target="T-vivkNuzFImTQ-fA0yE-4">
          <mxGeometry width="50" height="50" relative="1" as="geometry">
            <mxPoint x="615" y="320" as="sourcePoint" />
            <mxPoint x="510" y="320" as="targetPoint" />
          </mxGeometry>
        </mxCell>
      </root>
    </mxGraphModel>
  </diagram>
</mxfile>
